<svg xmlns="http://www.w3.org/2000/svg" width="300" height="300" viewBox="0 0 300 300">
  <rect width="300" height="300" fill="#f8f9fa"/>
  <path d="M150,75 C112.5,75 82.5,105 82.5,142.5 C82.5,180 112.5,210 150,210 C187.5,210 217.5,180 217.5,142.5 C217.5,105 187.5,75 150,75 Z M150,195 C120,195 97.5,172.5 97.5,142.5 C97.5,112.5 120,90 150,90 C180,90 202.5,112.5 202.5,142.5 C202.5,172.5 180,195 150,195 Z" fill="#6c757d"/>
  <path d="M225,127.5 L225,112.5 L195,112.5 L195,127.5 L225,127.5 Z M105,127.5 L105,112.5 L75,112.5 L75,127.5 L105,127.5 Z M150,75 L150,45 L135,45 L135,75 L150,75 Z M150,240 L150,210 L135,210 L135,240 L150,240 Z" fill="#6c757d"/>
  <path d="M142.5,135 L157.5,135 L157.5,180 L142.5,180 L142.5,135 Z M142.5,105 L157.5,105 L157.5,120 L142.5,120 L142.5,105 Z" fill="#6c757d"/>
  <path d="M150,150 L180,120 L187.5,127.5 L157.5,157.5 L150,150 Z" fill="#6c757d"/>
</svg> 